<svg xmlns="http://www.w3.org/2000/svg" width="250" height="250" fill="none" viewBox="0 0 250 250">
<!-- SVG created with Arrow, by QuiverAI (https://quiver.ai) -->
  <path d="m166.9 103.4c-4.12-0.49-8.42-0.26-9.53-2.19s0.34-2.79 1.61-2.1 5.01 1.81 7.92 2.1 5.24 0.71 5.24 2.19c0 1.47-2.03 0.34-5.24 0z" fill="#B9D9CC" opacity=".1"/>
  <path d="m182.9 73.22c-4.12-0.48-7.73-0.36-8.84-2.29s0.34-2.79 1.61-2.1 4.32 1.81 7.23 2.1 4.1 0.52 4.1 1.99c0 1.48-0.89 0.64-4.1 0.3z" fill="#B9D9CC" opacity=".1"/>
  <path d="m149.9 204.2c7.99-5.2 16.28-13.34 19.54-19.11-1.53 7.69-17.33 18.74-19.54 19.11z" fill="#A04529"/>
  <path d="m174 183c3.37-3.15 6.98-8.92 7.63-11.87 0.77 3.06-5 10.63-7.63 11.87z" fill="#A04529"/>
  <path d="m174.8 169c3.96-1.86 11.19-8.6 12.78-11.19-0.92 3.97-9.53 11-12.78 11.19z" fill="#A04529"/>
  <path d="m176.1 166.2c3.73-1.87 11.57-10.41 13.16-13-0.65 3.6-9.91 12.81-13.16 13z" fill="#A04529"/>
  <path d="m44.28 184.8c10.03 5.91 27.43 7.25 45.66 9.61-10.02 1.34-34.88-0.14-43.83-6.75l-1.83-2.86z" fill="#A04529"/>
  <path d="m56.65 193.1c6.34 2.71 13.17 3.75 20.43 4.12-5.44 0.72-15.4-0.83-20.43-4.12z" fill="#A04529"/>
  <path d="m60.02 197.1c4.89 1.79 10.44 2.65 16.27 2.58-4.3 0.93-12.14-0.29-16.27-2.58z" fill="#A04529"/>
  <path d="m66.61 201.1c3.71 1.51 7.97 2.25 12.5 2.19-3.29 0.86-9.29-0.21-12.5-2.19z" fill="#A04529"/>
  <path d="m76.62 207.2c8.49 4.97 18.69 8.65 29.64 8.65-9.54 1.26-22.52-3.85-29.64-8.65z" fill="#A04529"/>
  <path d="m140.1 162.9c7.69-2.82 15.67-2.65 22.97 1-3.25-0.45-5.31-2.82-22.97-1z" fill="#A04529"/>
  <path d="m47.06 182.4c-1.83-3.74 0.61-8.8 2.92-10.07-0.92 2.89-3.13 5.58-2.92 10.07z" fill="#A04529"/>
  <path d="m43.59 180.2c-1.48-6.22 2.9-12.6 7.28-16.04-2.21 3.89-7.93 8.91-7.28 16.04z" fill="#A04529"/>
  <path d="m59.71 187.3c0.47-3.85 3.72-7.53 5.86-8.64-0.92 2.19-4.7 5.29-5.86 8.64z" fill="#A04529"/>
  <path d="m235.1 82.12c-2.03-6.05-8.3-5.94-13.05-4.32-13.16 4.66-20.85 11.96-37.81 28.44-1.27 1.05-2.05 2.23-2.05 3.17-4.3 3.68-10.07 10.67-14.89 11.91-3.67 0.54-6.58 0-11.26-0.29-0.85-2.11-1.5-5.79-2.91-5.79-1.9 0-1.62 3.1-2.2 5.07-8.05 0.48-16.03 1.95-24.01 4.25 0.98-4.48 3.82-10.31 6.38-14.65 3.14-5.3 6.4-1.95 5.82-0.61-1.9 5.59-12.92 28.61-16.98 30.65-2.1 1.01 0.73-9.82 1.65-13.86-11.38 2.79-22.76 7.02-33.78 12.17l-7.69 1.69-14.55-15.04c-2.02-1.34-4.65-1.17-6.55 0l-8.15-13.73-0.92 0.53 5.77 10.72-10.27-12.37-1.06 0.35 10.81 13.22-10.81-7.81-0.25 0.35 12.75 10.94c-2.1 3.68-0.27 7.47 2.78 10.11l11.44 8.22-11.32 6.32 0.35 0.48 12.45-5.91 15.4 12.55c3.14 2.04 3.61 0.23 1.96-2.47l-8.84-15.29 4.3 0.4c11.08-6.76 23.53-11.45 36.33-14.21-1.21 4.03-3.84 13.63-2.25 14.1 2.21 0.69 12.6-15.32 14.25-17.02 4.89-1.61 10.18-2.3 15.69-2.59 4.46 7.25 2.44 16.29-5.14 26.26-6.56 8.58-12.26 11.23-23.82 11.46-0.58 0-0.58-0.48 0-1.46 9.12-13.85 23.51-24.46 25.92-37.27" stroke="#A04529" stroke-linecap="round" stroke-linejoin="round" stroke-miterlimit="10" stroke-width="1.2"/>
  <path d="m163.7 170c10.2-5.99 25.37-19.33 26.58-26.84-0.35 8.6-4.59 26.72-10.1 34.94-7.57 10.55-22.97 28.13-40.03 34.68-13.06 4.49-24.08 6.24-35.1 6.01-24.26-0.23-48.51-12.79-60.86-30.72-7.12-8.93-3.27-18.07 8.75-30.52l-1.36-10.49c4.9 5.1 8.1 4.51 11.83 6.7 9.54 4.6 24.48 19.97 33.71 28.43-5.04 0.98-8.35 3.51-16.33 1.47-7.58-2.08-20.65-14.64-25.7-23.45l-2.33-5.02" stroke="#A04529" stroke-linecap="round" stroke-linejoin="round" stroke-miterlimit="10" stroke-width="1.2"/>
  <path d="m155.7 122.6c12.14 0.81 25.96 3.17 33.54 9.92 3.47 3.26 3.3 6.42 2.46 13.68" stroke="#A04529" stroke-linecap="round" stroke-linejoin="round" stroke-miterlimit="10" stroke-width="1.2"/>
  <path d="m186.2 134.8c3.47 1.47 3.47 6.3 1.02 9.98" stroke="#A04529" stroke-linecap="round" stroke-linejoin="round" stroke-miterlimit="10" stroke-width="1.2"/>
  <path d="m179.5 127.1c1.48-4.91 5.37-10.33 9.68-12.46 3.03-1.4 4.86-1.05 4.51-4.54-0.35-2.77-6.12-2.77-7.71-1.35" stroke="#A04529" stroke-linecap="round" stroke-linejoin="round" stroke-miterlimit="10" stroke-width="1.2"/>
  <path d="m190.7 118c3.47 0 6.62-6.57 14.6-12.62 9.11-7.17 22.7-11.34 28.47-18.91 2.56-3.49 1.5-7.97-2.3-8.83-6.08-1.47-16.22 5.06-22.38 10.3" stroke="#A04529" stroke-linecap="round" stroke-linejoin="round" stroke-miterlimit="10" stroke-width="1.2"/>
  <path d="m196.8 113.2c1.11-5.54 7.1-10.03 12.87-14.03 6.55-4.48 16.94-11.19 19.85-14.87" stroke="#A04529" stroke-linecap="round" stroke-linejoin="round" stroke-miterlimit="10" stroke-width="1.2"/>
  <path d="m230.4 83.21c-0.35-0.98-1.52-1.46-2.63-1.46" stroke="#A04529" stroke-linecap="round" stroke-linejoin="round" stroke-miterlimit="10" stroke-width="1.2"/>
  <path d="m135.4 168.3c2.78-0.91 6.84-0.57 7.41 2.14 0.65 2.71 0 5.62-1.58 7.24" stroke="#A04529" stroke-linecap="round" stroke-linejoin="round" stroke-miterlimit="10" stroke-width="1.2"/>
  <path d="m132.9 169.3c1.21-1.72 4.12-0.92 4.9 1.1 1.33 3.41-0.43 7.18-1.7 8.7" stroke="#A04529" stroke-linecap="round" stroke-linejoin="round" stroke-miterlimit="10" stroke-width="1.2"/>
  <path d="m125.7 171.7c1.1 1.52 3.61 1.52 4.32-0.56" stroke="#A04529" stroke-linecap="round" stroke-linejoin="round" stroke-miterlimit="10" stroke-width="1.2"/>
  <path d="m104.6 187.3c1.53-5.19 4.31-5.68 10.43-7.47 5.17-1.52 5.17-4.23 5.52-8.72 0.29-2.71 4.59-3.06 5.48-0.4" stroke="#A04529" stroke-linecap="round" stroke-linejoin="round" stroke-miterlimit="10" stroke-width="1.2"/>
  <path d="m102.4 170.2c2.72-0.44 6.29 1.91 7.66 4.51-4.01 0-8.31-1.45-8.31-3.8 0-0.48 0.29-0.65 0.65-0.71z" fill="#A04529"/>
  <path d="m156.1 100.7c2.03 0 2.15 2.39-0.44 4.7-2.68 2.41-5.87 3.28-7.31 5.99 0.65-3.99 3.8-10.69 7.75-10.69z" fill="#A04529"/>
  <path d="m102.2 92.13c2.68 1.29 3.66 3.82 4.01 6.82-1.64-1.04-2.53-4.54-4.01-6.82z" fill="#A04529"/>
  <path d="m46.61 132.8c2.45 0.38 5.12 1.92 6.3 3.9-3.08-0.12-8.4-0.46-8.63-2.5-0.23-1.57 1-1.57 2.33-1.4z" fill="#A04529"/>
  <path d="m36.05 140.9c3.89-1.76 8.65-2.05 10.98 0-3.68 0.47-7.57 5.45-13.34 6.37-3.67 0.48-2.28-4.27 2.36-6.37z" fill="#A04529"/>
  <path d="m160 61.71c1.65-0.98 5.89-1.1 7.1 1.2 0.89 1.81-2.46 2.73-5.66 1.03-1.17-0.6-1.87-1.73-1.44-2.23z" stroke="#A04529" stroke-linecap="round" stroke-linejoin="round" stroke-miterlimit="10" stroke-width=".8"/>
  <path d="m167.7 40.81c1.11-2.35 4.43-4.76 6.21-4.15 1.9 0.69 0 2.99-3.2 4.15-1.53 0.65-3.43 0.94-3.01 0z" stroke="#A04529" stroke-linecap="round" stroke-linejoin="round" stroke-miterlimit="10" stroke-width=".8"/>
  <path d="m134.7 42.74c-0.29-3.79 0.35-9.7 2.5-10.1 2.51-0.48 1.67 5.47-1.59 9.98-0.56 0.8-0.91 0.69-0.91 0.12z" stroke="#A04529" stroke-linecap="round" stroke-linejoin="round" stroke-miterlimit="10" stroke-width=".8"/>
  <path d="m154.6 51.93c-2.02-3.02 0.97-5.78 6.12-9.31 4.89-3.26 4.89-11.48-0.88-12.53-6.74-1.34-15.85 6.22-19.65 16-1.48 3.73-1.99 5.84-3.53 5.61-1.38-0.23-0.28-4.41-2.73-4.41-3.47 0-4.73 5.42-5.31 12.74-0.89 11.16-5.47 19.91-18.48 23.18-2.56 0.65-2.79 2.29-1.9 4.54 1.16 2.96 2.05 8.26 6.35 9.3 4 0.98 6.51-1.04 9.17-3.63 2.21-2.19 5.35-3.37 4.83-4.74-0.89-2.36-3.63 0.54-4.57-1.44-1.21-2.65 3.19-13.2 13.58-19.47 5.25-2.65 16.69-3.45 19.02-6.56 1.54-2.23-2.64-2.46-3.58-3.5-1.38-1.52 1.76-3.04 5.23-3.96 5.77-1.7 13.35-2.74 15-4.16 2.21-1.87 1.1-3.33-2.37-2.41-4.48 1.23-10.82 5.47-13.44 4.78-1.48-0.43-2.06-0.43-2.86-0.03z" stroke="#A04529" stroke-linecap="round" stroke-linejoin="round" stroke-miterlimit="10" stroke-width="1.2"/>
  <path d="m155.1 34.16c-4.89 1.98-12.47 6.47-15.98 15.55" stroke="#A04529" stroke-linecap="round" stroke-linejoin="round" stroke-miterlimit="10" stroke-width=".8"/>
  <path d="m135.4 55.21c1.77 0.43 3.41-1 4.05-2.76" stroke="#A04529" stroke-linecap="round" stroke-linejoin="round" stroke-miterlimit="10" stroke-width=".5"/>
  <path d="m150.4 125.1c-2.91 0.64-2.39 5.42 0.29 5.05 3.08-0.44 3.08-5.86-0.29-5.05z" stroke="#A04529" stroke-linecap="round" stroke-linejoin="round" stroke-miterlimit="10" stroke-width=".8"/>
  <path d="m146.5 132.7c-2.91 0.64-1.85 5.33 0.81 4.64 2.84-0.81 2.14-5.3-0.81-4.64z" stroke="#A04529" stroke-linecap="round" stroke-linejoin="round" stroke-miterlimit="10" stroke-width=".8"/>
  <path d="m143 139.2c-2.91 0.64-1.85 5.33 0.82 4.64 2.85-0.81 2.15-5.3-0.82-4.64z" stroke="#A04529" stroke-linecap="round" stroke-linejoin="round" stroke-miterlimit="10" stroke-width=".8"/>
  <path d="m134.4 149.2c-2.91 0.65-2.07 5.08 0.59 4.39 2.58-0.75 2-5.08-0.59-4.39z" stroke="#A04529" stroke-linecap="round" stroke-linejoin="round" stroke-miterlimit="10" stroke-width=".8"/>
  <path d="m61.59 157.6c-2.33 0.81-0.84 4.91 1.82 4.05 2.21-0.79 1-4.95-1.82-4.05z" stroke="#A04529" stroke-linecap="round" stroke-linejoin="round" stroke-miterlimit="10" stroke-width=".8"/>
  <path d="m67.93 162.5c-1.32 1.78 1.18 4.84 3.2 3.92 2.56-1.18 0-6.17-3.2-3.92z" stroke="#A04529" stroke-linecap="round" stroke-linejoin="round" stroke-miterlimit="10" stroke-width=".8"/>
  <path d="m75.51 168.6c-1.27 2.04 1.23 4.58 3.37 3.29 2.28-1.42-0.35-6.23-3.37-3.29z" stroke="#A04529" stroke-linecap="round" stroke-linejoin="round" stroke-miterlimit="10" stroke-width=".8"/>
  <path d="m83.74 174.6c-1.43 1.98 1.31 4 3.08 3 2.45-1.39 0.3-5.5-3.08-3z" stroke="#A04529" stroke-linecap="round" stroke-linejoin="round" stroke-miterlimit="10" stroke-width=".8"/>
  <path d="m131.1 84.13c-2.16 0.29-1.81 2.59-0.32 2.48 2.02-0.17 2.6-2.83 0.32-2.48z" stroke="#A04529" stroke-linecap="round" stroke-linejoin="round" stroke-miterlimit="10" stroke-width=".8"/>
  <path d="m159.4 35.22c-0.89 0-1.14 2.19-0.25 2.19 1.04 0 1.27-2.19 0.25-2.19z" stroke="#A04529" stroke-linecap="round" stroke-linejoin="round" stroke-miterlimit="10" stroke-width=".5"/>
  <path d="m129.2 116 4.88 1.42" stroke="#A04529" stroke-linecap="round" stroke-linejoin="round" stroke-miterlimit="10" stroke-width=".5"/>
  <path d="m128.3 120.5 3.15 0.92" stroke="#A04529" stroke-linecap="round" stroke-linejoin="round" stroke-miterlimit="10" stroke-width=".5"/>
  <path d="m129.9 110.1 6.2-0.98" stroke="#A04529" stroke-linecap="round" stroke-linejoin="round" stroke-miterlimit="10" stroke-width=".5"/>
  <path d="m62.36 128.2 3.47-0.47" stroke="#A04529" stroke-linecap="round" stroke-linejoin="round" stroke-miterlimit="10" stroke-width=".5"/>
  <path d="m63.52 132.7 3.15-0.6" stroke="#A04529" stroke-linecap="round" stroke-linejoin="round" stroke-miterlimit="10" stroke-width=".5"/>
  <path d="m69.29 137.2 3.8-0.97" stroke="#A04529" stroke-linecap="round" stroke-linejoin="round" stroke-miterlimit="10" stroke-width=".5"/>
  <path d="m76.24 143.2 2.67-0.97" stroke="#A04529" stroke-linecap="round" stroke-linejoin="round" stroke-miterlimit="10" stroke-width=".5"/>
  <path d="m81.75 148.2 2.91-0.97" stroke="#A04529" stroke-linecap="round" stroke-linejoin="round" stroke-miterlimit="10" stroke-width=".5"/>
  <path d="m137.6 105 10.02-13" stroke="#A04529" stroke-linecap="round" stroke-linejoin="round" stroke-miterlimit="10" stroke-width="1.2"/>
  <path d="m136.4 103.6 10.02-16.49" stroke="#A04529" stroke-linecap="round" stroke-linejoin="round" stroke-miterlimit="10" stroke-width="1.2"/>
  <path d="m138.2 102.2 2.31-18.04" stroke="#A04529" stroke-linecap="round" stroke-linejoin="round" stroke-miterlimit="10" stroke-width="1.2"/>
  <path d="m111.2 103c4.84-0.49 9.63 3 9.99 8.41 0.41 5.65-4.38 8.77-6.89 8.71-2.21-0.05-1.57-1.91-2.15-6.2-0.58-4.02-4.42-10.49-0.95-10.92z" stroke="#A04529" stroke-linecap="round" stroke-linejoin="round" stroke-miterlimit="10" stroke-width=".8"/>
  <path d="m112.6 104.9c2.55 1.98 4.04 6.47 3.4 12.47" stroke="#A04529" stroke-linecap="round" stroke-linejoin="round" stroke-miterlimit="10" stroke-width=".8"/>
  <path d="m119.1 143c-0.35-1.52-2.97-2.32-4.33-1.2-0.98-3.38-4.98-3.93-6.52-2.4-2.02-0.98-4.57-0.29-5.1 1.37-3.2-0.49-5.47 2.9-4.26 4.94-2.02 1.3-1.79 3.48-0.9 4.47-1.77 2.14-0.88 5.82 1.39 6.19 0.17 1.71 1.71 2.24 3.48 1.71 1.16 1.52 3.44 0.99 4.32-0.99 1.55 0.47 2.71-0.51 3.29-1.98l2.83 9.6c2.02 0.98 3.99-0.49 4.93-3.45 0.89-2.95 0.25-6.15-0.64-7.68 1.77-0.49 2.66-2.52 1.77-4.04 2.1-0.98 2.39-4.52-0.26-6.54z" stroke="#A04529" stroke-linecap="round" stroke-linejoin="round" stroke-miterlimit="10" stroke-width=".8"/>
  <path d="m107.1 152.2 1.96-1.97-0.53-1.53 2.33 0.49 0.7-1.04 0.89 4.96 1.21-4.96 1.37 0.81-0.57 2.7" stroke="#A04529" stroke-linecap="round" stroke-linejoin="round" stroke-miterlimit="10" stroke-width=".8"/>
  <path d="m109.1 141.1-1.76 0.49" stroke="#A04529" stroke-linecap="round" stroke-linejoin="round" stroke-miterlimit="10" stroke-width=".8"/>
  <path d="m112.6 143-0.89 0.98" stroke="#A04529" stroke-linecap="round" stroke-linejoin="round" stroke-miterlimit="10" stroke-width=".8"/>
  <path d="m102.2 148.1 1.16 0.49" stroke="#A04529" stroke-linecap="round" stroke-linejoin="round" stroke-miterlimit="10" stroke-width=".8"/>
  <path d="m117.3 146.1-0.64 0.98" stroke="#A04529" stroke-linecap="round" stroke-linejoin="round" stroke-miterlimit="10" stroke-width=".8"/>
  <path d="m104.5 153.6 1.16 0.98" stroke="#A04529" stroke-linecap="round" stroke-linejoin="round" stroke-miterlimit="10" stroke-width=".8"/>
  <path d="m113.1 158.1 2.33 2.48" stroke="#A04529" stroke-linecap="round" stroke-linejoin="round" stroke-miterlimit="10" stroke-width=".5"/>
  <path d="m64.62 64.72c2.62-1.52 6.09-5.51 10.09-5.51 3.47 0 5.79 3.1 6.9 5.97 1.77 4.49 8.04 7.98 8.62 14.03 0.78 7.25-2.69 14.5-1.52 18.99 1.21 5.41 5.45 8.9 10.96 13.86 5.77 4.96 6.93 12.21 3.46 16.21-4 4.49-7.09 5.96-11.98 4.98-5.77-1.24-8.09-7.19-9.86-15.41-1.77-7.57-8.11-11.31-13.88-11.79-11.02-0.98-19-5.99-23.02-16.54-2.55-6.59 1.72-10.08 4.55-12.79l1.16-0.98" stroke="#A04529" stroke-linecap="round" stroke-linejoin="round" stroke-miterlimit="10" stroke-width=".8"/>
  <path d="m50.74 70.64c0.89-3.99 5.48-7.47 8.31-7.24 4.79 0.34 8.8 3.83 12.27 6.89 4.89 4.49 8.36 5.47 10.41 12.02 1.77 6.05 2.18 16.07 3.44 21.04 1.16 4.96 8.48 9.92 11.95 12.98 4.48 3.74 4.48 8.23 2.99 12.23" stroke="#A04529" stroke-linecap="round" stroke-linejoin="round" stroke-miterlimit="10" stroke-width=".8"/>
  <path d="m52.49 68.66c1.17 4.49 2.65 9.95 5.56 12.48 3.8 3.31 8.96 5.9 12.1 8.43 3.47 2.76 6.93 7.72 8.09 9.75" stroke="#A04529" stroke-linecap="round" stroke-linejoin="round" stroke-miterlimit="10" stroke-width=".5"/>
  <path d="m57.39 70.12c2.91 5.47 5.78 11.08 9.73 13.61 4.49 2.82 9.65 9.37 11.41 12.8" stroke="#A04529" stroke-linecap="round" stroke-linejoin="round" stroke-miterlimit="10" stroke-width=".5"/>
  <path d="m63.16 67.11c2.55 2.04 5.1 5.05 5.99 9.05 1.17 4.96 2.05 11.51 4 15.51" stroke="#A04529" stroke-linecap="round" stroke-linejoin="round" stroke-miterlimit="10" stroke-width=".5"/>
  <path d="m66.62 65.18c3.15 1.47 8.19 4.96 10.46 7.97" stroke="#A04529" stroke-linecap="round" stroke-linejoin="round" stroke-miterlimit="10" stroke-width=".5"/>
  <path d="m76.62 63.71 0.89 9.5" stroke="#A04529" stroke-linecap="round" stroke-linejoin="round" stroke-miterlimit="10" stroke-width=".5"/>
  <path d="m50.1 88.13 11.49 8.22" stroke="#A04529" stroke-linecap="round" stroke-linejoin="round" stroke-miterlimit="10" stroke-width=".5"/>
  <path d="m53.57 95.26 11.44 7.15" stroke="#A04529" stroke-linecap="round" stroke-linejoin="round" stroke-miterlimit="10" stroke-width=".5"/>
  <path d="m56.48 99.75 10.87 3.49" stroke="#A04529" stroke-linecap="round" stroke-linejoin="round" stroke-miterlimit="10" stroke-width=".5"/>
  <path d="m62.25 93.28c4.48 3.01 11.7 5.98 14.86 9.98 4.24 5.19 5.95 11.66 7.97 17.62 2.03 6.18 5.5 10.17 11.01 9.13" stroke="#A04529" stroke-linecap="round" stroke-linejoin="round" stroke-miterlimit="10" stroke-width=".5"/>
  <path d="m92.52 129.5c3.2 0 6.34-2.49 6.34-6.97" stroke="#A04529" stroke-linecap="round" stroke-linejoin="round" stroke-miterlimit="10" stroke-width=".5"/>
  <path d="m116.6 53.69c-0.64-2.25-2.41-3.58-3.95-3.58 0-2.04-2.27-2.04-3.48-1.7-1.44 0.43-3.94-0.34-5.49 0-1.48 0.35-2.42 1.33-2.42 2.31-1.77-0.98-4.68-0.5-4.97 1.96-2.15 0-3.64 2.49-2.99 3.96-1.55 0.98-0.91 3.01 0.58 3.49-0.58 1.47 0.32 2.98 1.8 2.98l1.54 0.43 1.16 4-0.89 10.09c1.17 1.52 3.83 2.5 6.1 2.15 1.16-0.23 0.87-4.72 3.2-8.65 0.88-1.69 2.43-2.5 3.31-2.01 1.16 0.98 3.43 1.21 4.6 0 2.05 0.49 3.95-0.98 3.95-3.01 1.54-0.98 1.54-3.46 0-4.44 1.54-2.04 0.44-4.02-1.1-4.51 1.54-1.52 0.6-3.55-0.95-3.47z" stroke="#A04529" stroke-linecap="round" stroke-linejoin="round" stroke-miterlimit="10" stroke-width=".8"/>
  <path d="m100.1 54.18-1.26 0.98" stroke="#A04529" stroke-linecap="round" stroke-linejoin="round" stroke-miterlimit="10" stroke-width=".8"/>
  <path d="m103.6 52.2 1.16-0.98" stroke="#A04529" stroke-linecap="round" stroke-linejoin="round" stroke-miterlimit="10" stroke-width=".8"/>
  <path d="m107.9 51.22 0.89 0.48" stroke="#A04529" stroke-linecap="round" stroke-linejoin="round" stroke-miterlimit="10" stroke-width=".8"/>
  <path d="m113.1 54.18 0.84 1.47" stroke="#A04529" stroke-linecap="round" stroke-linejoin="round" stroke-miterlimit="10" stroke-width=".8"/>
  <path d="m114.9 58.66-0.58 0.98" stroke="#A04529" stroke-linecap="round" stroke-linejoin="round" stroke-miterlimit="10" stroke-width=".8"/>
  <path d="m116.4 62.16-0.64 0.49" stroke="#A04529" stroke-linecap="round" stroke-linejoin="round" stroke-miterlimit="10" stroke-width=".8"/>
  <path d="m113.5 65.12-0.89 0.49" stroke="#A04529" stroke-linecap="round" stroke-linejoin="round" stroke-miterlimit="10" stroke-width=".8"/>
  <path d="m100.1 62.16 1.17 0.98 1.16-3.01 1.16 4.49-0.89 2.49-1.43 1.52" stroke="#A04529" stroke-linecap="round" stroke-linejoin="round" stroke-miterlimit="10" stroke-width=".8"/>
  <path d="m104.2 60.13 1.77 3.01 3.2-0.98-4.42 5.46-2.03 3" stroke="#A04529" stroke-linecap="round" stroke-linejoin="round" stroke-miterlimit="10" stroke-width=".8"/>
  <path d="m109.6 90.05c2.02 1.47 4.59 2.45 7.14 1.47 1.49-0.6 2.38-0.49 3.27-1.47" stroke="#A04529" stroke-linecap="round" stroke-linejoin="round" stroke-miterlimit="10" stroke-width=".8"/>
</svg>